<?xml version="1.0" ?><svg viewBox="0 0 24 24" xmlns="http://www.w3.org/2000/svg"><title/><g id="Atom"><g data-name="&lt;Group&gt;" id="_Group_"><path d="M2.49,13.91A4.39,4.39,0,0,1,.64,12c-1-2.48,3.3-4.48,9.58-4.48s12.16,2,13.14,4.48c.47,1.18-.26,2.25-1.82,3.05" data-name="&lt;Path&gt;" id="_Path_" style="fill:none;stroke:#303c42;stroke-linecap:round;stroke-linejoin:round"/><path d="M9.52,20.81a5.09,5.09,0,0,1-3.2,1c-2.65-.39-2.25-5.09.89-10.5S15,1.82,17.68,2.21c1.43.21,2,1.67,1.68,3.81" data-name="&lt;Path&gt;" id="_Path_2" style="fill:none;stroke:#303c42;stroke-linecap:round;stroke-linejoin:round"/><path d="M16.21,10.51c2.22,4.74,2.9,9.48,1.47,11.28-1.66,2.09-5.55-.6-8.69-6S4.66,4.29,6.32,2.21c.9-1.13,2.44-.86,4.16.47" data-name="&lt;Path&gt;" id="_Path_3" style="fill:none;stroke:#303c42;stroke-linecap:round;stroke-linejoin:round"/><circle cx="12" cy="12" data-name="&lt;Path&gt;" id="_Path_4" r="1.5" style="fill:none;stroke:#303c42;stroke-linecap:round;stroke-linejoin:round"/></g></g></svg>